<?xml version="1.0" encoding="iso-8859-1"?>
<!-- Uploaded to: SVG Repo, www.svgrepo.com, Generator: SVG Repo Mixer Tools -->
<svg fill="#000000" height="800px" width="800px" version="1.1" id="Layer_1" xmlns="http://www.w3.org/2000/svg" xmlns:xlink="http://www.w3.org/1999/xlink" 
	 viewBox="0 0 512 512" xml:space="preserve">
<g>
	<g>
		<polygon points="424.19,148.065 400.241,172.013 424.655,196.428 334.102,271.772 339.032,385.167 463.638,235.409 
			488.053,259.824 512,235.877 		"/>
	</g>
</g>
<g>
	<g>
		<path d="M308.106,453.565l-11.289-259.657h-73.381V58.435h-33.868v135.473h-52.796l-50.087-50.087
			c-19.807-19.807-52.038-19.807-71.846,0C5.27,153.39,0,166.148,0,179.744s5.27,26.354,14.839,35.922l96.218,96.218l-6.161,141.681
			H308.106z M38.787,191.718c-3.172-3.172-4.919-7.424-4.919-11.974s1.746-8.804,4.919-11.975c3.302-3.302,7.637-4.952,11.975-4.952
			c4.335,0,8.674,1.651,11.974,4.952l52.312,52.312l-1.996,45.903L38.787,191.718z"/>
	</g>
</g>
</svg>